<svg width="1440" height="1024" viewBox="0 0 1440 1024" fill="none" xmlns="http://www.w3.org/2000/svg">
<rect width="1440" height="1024" fill="white"/>
<path fill-rule="evenodd" clip-rule="evenodd" d="M1130 708.5L1164.31 609.604C1174.49 580.253 1166.77 547.66 1144.5 526L1143.53 525.059C1121.14 503.284 1110.21 472.298 1113.99 441.295L1126.86 335.523C1133.53 280.699 1094.49 230.848 1039.67 224.177C1036.87 223.837 1034.07 223.616 1031.25 223.512L990 222L905.817 141.643C877.131 114.261 834.345 107.827 798.874 125.563L703.549 173.225C688.113 180.943 670.942 184.535 653.706 183.651L576.331 179.683C535.051 177.567 498.439 205.984 490.25 246.5L477.28 310.666C476.428 314.884 475.848 319.153 475.546 323.446L463.382 495.984C462.799 504.254 460.664 512.34 457.087 519.819L423.638 589.757C413.231 611.516 411.04 636.303 417.467 659.55L431 708.5H1130Z" fill="#C4C4DE"/>
<path fill-rule="evenodd" clip-rule="evenodd" d="M431 708.5L341.288 805.881C314.72 834.721 316.561 879.638 345.401 906.206C357.694 917.531 373.589 924.156 390.287 924.914L1055.78 955.13C1094.95 956.909 1128.15 926.595 1129.93 887.424C1129.98 886.351 1130 885.277 1130 884.203V708.5H431Z" fill="#8B8BB5"/>
<mask id="mask0" mask-type="alpha" maskUnits="userSpaceOnUse" x="566" y="65" width="650" height="409">
<path d="M593.5 387.5V65.5H566.5V401C566.5 408.456 572.544 414.5 580 414.5H800.221C815.943 414.5 831.367 418.785 844.836 426.894L895.238 457.238C912.911 467.878 933.15 473.5 953.779 473.5H1215.5V446.5H953.779C938.057 446.5 922.633 442.215 909.164 434.106L858.762 403.762C841.089 393.122 820.85 387.5 800.221 387.5H593.5Z" fill="white"/>
</mask>
<g mask="url(#mask0)">
<path d="M593.5 387.5V65.5H566.5V401C566.5 408.456 572.544 414.5 580 414.5H800.221C815.943 414.5 831.367 418.785 844.836 426.894L895.238 457.238C912.911 467.878 933.15 473.5 953.779 473.5H1215.5V446.5H953.779C938.057 446.5 922.633 442.215 909.164 434.106L858.762 403.762C841.089 393.122 820.85 387.5 800.221 387.5H593.5Z" fill="#FF8484"/>
<path fill-rule="evenodd" clip-rule="evenodd" d="M1097 438.5H1241V487.5H1097V438.5ZM536 379.5H680V428.5H536V379.5ZM558.5 263V140.5H619L607.5 263H558.5ZM845.5 369.5L961.5 424.5V473.5C958.17 486.226 944.504 491.56 920.5 489.5C896.496 487.44 859.663 477.774 810 460.5L845.5 369.5Z" fill="#DE6262"/>
</g>
<path fill-rule="evenodd" clip-rule="evenodd" d="M734 474.5L402 156L373 566.5L727.5 503.5L734 474.5Z" fill="#FFEECD"/>
<mask id="mask1" mask-type="alpha" maskUnits="userSpaceOnUse" x="208" y="139" width="288" height="418">
<path d="M269.707 551.44C334.961 577.773 424.704 508.037 470.153 395.68C515.603 283.323 499.547 170.893 434.293 144.56C369.039 118.227 279.296 187.963 233.847 300.32C188.397 412.677 204.453 525.107 269.707 551.44Z" fill="white"/>
</mask>
<g mask="url(#mask1)">
<path d="M371.036 566.627C441.133 560.465 489.435 457.587 478.922 336.843C468.408 216.099 403.061 123.211 332.964 129.373C262.867 135.535 214.565 238.413 225.078 359.157C235.592 479.901 300.939 572.789 371.036 566.627Z" fill="#F5CB76"/>
<path d="M489 490V508H381V490H330V470H435H542V490H489ZM487 490H435H383V506H487V490ZM381 488H435V472H332V488H381ZM437 488H489H540V472H437V488ZM357 205H304V221H407V205H357ZM357 203H409V223H304H196V203H250V185H357V203ZM302 221V205H250H198V221H302ZM355 203V187H252V203H302H355ZM248 250H355V270H248H143V250H248ZM248 268V252H145V268H248ZM250 268H353V252H250V268Z" fill="white"/>
<path d="M541 536H436V554H541V536Z" stroke="white" stroke-width="2"/>
<path d="M594 490H489V508H594V490Z" stroke="white" stroke-width="2"/>
</g>
<path fill-rule="evenodd" clip-rule="evenodd" d="M714.966 515.5C697.678 544.347 697.678 561.065 714.966 565.655C732.253 570.244 746.931 556.148 759 523.367L714.966 515.5Z" fill="#353535"/>
<path d="M735.5 868.5C852.861 868.5 948 856.859 948 842.5C948 828.141 852.861 816.5 735.5 816.5C618.139 816.5 523 828.141 523 842.5C523 856.859 618.139 868.5 735.5 868.5Z" fill="#353535"/>
<mask id="mask2" mask-type="alpha" maskUnits="userSpaceOnUse" x="382" y="489" width="684" height="419">
<path d="M992.394 830.285L1015.35 846.509C1015.51 846.623 1015.67 846.743 1015.82 846.871C1018.46 849.134 1018.76 853.11 1016.5 855.75C1013.79 858.915 1009.39 860.047 1005.48 858.584C979.503 848.846 964.509 841.818 960.5 837.5L899 784L821 764.5L816 866.5C809.662 867.056 804.828 867.389 801.5 867.5C771.5 868.5 747.169 868.867 731.222 869.114C715.228 869.362 696.431 869.114 669.186 868.276C666.648 868.198 661.478 867.639 653.677 866.6L664.156 757.241L599.724 822.658C594.59 827.87 588.9 832.503 582.756 836.474L524.243 874.288C517.537 878.622 510.08 881.662 502.257 883.253L383 907.5C381.254 893.286 387.087 880.453 400.5 869C412.206 859.005 451.198 852.229 479 850.5C481.657 850.335 504.562 831.498 547.713 793.989C549.234 792.667 550.661 791.243 551.987 789.725L625.649 705.388C643.422 685.038 668.809 672.929 695.809 671.923L734 670.5L742.539 631.96H721.741C706.277 631.96 693.741 619.424 693.741 603.96C693.741 600.883 694.249 597.827 695.242 594.916L715.972 534.181C725.092 507.46 750.199 489.5 778.434 489.5H792.419C816.16 489.5 835.405 508.746 835.405 532.486C835.405 537.458 834.543 542.392 832.856 547.069L786 677L912.748 723.391C929.92 729.677 945.04 740.55 956.464 754.829L991 798C1021 796.667 1037.33 798.333 1040 803C1042.21 806.875 1050.06 815.463 1063.54 828.764C1066.22 831.404 1066.24 835.714 1063.6 838.39C1062.69 839.318 1061.52 839.964 1060.25 840.25C1052.51 841.987 1044.4 840.098 1038.23 835.119L1032.5 830.5C1011.97 831.619 998.971 831.619 993.5 830.5C993.13 830.424 992.761 830.353 992.394 830.285Z" fill="white"/>
</mask>
<g mask="url(#mask2)">
<path d="M992.394 830.285L1015.35 846.509C1015.51 846.623 1015.67 846.743 1015.82 846.871C1018.46 849.134 1018.76 853.11 1016.5 855.75C1013.79 858.915 1009.39 860.047 1005.48 858.584C979.503 848.846 964.509 841.818 960.5 837.5L899 784L821 764.5L816 866.5C809.662 867.056 804.828 867.389 801.5 867.5C771.5 868.5 747.169 868.867 731.222 869.114C715.228 869.362 696.431 869.114 669.186 868.276C666.648 868.198 661.478 867.639 653.677 866.6L664.156 757.241L599.724 822.658C594.59 827.87 588.9 832.503 582.756 836.474L524.243 874.288C517.537 878.622 510.08 881.662 502.257 883.253L383 907.5C381.254 893.286 387.087 880.453 400.5 869C412.206 859.005 451.198 852.229 479 850.5C481.657 850.335 504.562 831.498 547.713 793.989C549.234 792.667 550.661 791.243 551.987 789.725L625.649 705.388C643.422 685.038 668.809 672.929 695.809 671.923L734 670.5L742.539 631.96H721.741C706.277 631.96 693.741 619.424 693.741 603.96C693.741 600.883 694.249 597.827 695.242 594.916L715.972 534.181C725.092 507.46 750.199 489.5 778.434 489.5H792.419C816.16 489.5 835.405 508.746 835.405 532.486C835.405 537.458 834.543 542.392 832.856 547.069L786 677L912.748 723.391C929.92 729.677 945.04 740.55 956.464 754.829L991 798C1021 796.667 1037.33 798.333 1040 803C1042.21 806.875 1050.06 815.463 1063.54 828.764C1066.22 831.404 1066.24 835.714 1063.6 838.39C1062.69 839.318 1061.52 839.964 1060.25 840.25C1052.51 841.987 1044.4 840.098 1038.23 835.119L1032.5 830.5C1011.97 831.619 998.971 831.619 993.5 830.5C993.13 830.424 992.761 830.353 992.394 830.285Z" fill="#FFCDCD"/>
<path fill-rule="evenodd" clip-rule="evenodd" d="M711 669C720 684.333 735 693 756 695C777 697 792.333 692 802 680L908 701.406L863.5 783L841 780L821.314 867.976L637.054 880.5L664.693 758.599L637.054 810.365L560 724.784C593.289 692.057 622.743 672.297 648.361 665.503C673.979 658.71 694.859 659.875 711 669Z" fill="#FFF9D6"/>
</g>
<path fill-rule="evenodd" clip-rule="evenodd" d="M820.692 540.884L840.997 545.744C841.176 580.246 832.116 595.236 813.818 590.714C804.669 588.453 799.489 582.888 798.277 574.019C790.588 580.294 782.586 582.013 774.269 579.173C757.399 573.415 756.615 556.524 771.916 528.5L821 540.203C820.897 540.431 820.795 540.658 820.692 540.884Z" fill="#353535"/>
<mask id="mask3" mask-type="alpha" maskUnits="userSpaceOnUse" x="707" y="479" width="143" height="71">
<path d="M707 513.467L850 549.5C844.072 543.913 841.238 539.649 841.498 536.707C844.447 503.355 825.945 492.817 787.962 484.571C749.796 476.285 738.15 475.351 721.879 503.645C720.503 506.038 715.544 509.312 707 513.467Z" fill="white"/>
</mask>
<g mask="url(#mask3)">
<path d="M707 513.467L850 549.5C844.072 543.913 841.238 539.649 841.498 536.707C844.447 503.355 825.945 492.817 787.962 484.571C749.796 476.285 738.15 475.351 721.879 503.645C720.503 506.038 715.544 509.312 707 513.467Z" fill="#3C3CA0"/>
<path fill-rule="evenodd" clip-rule="evenodd" d="M736 502.5L844.5 531.5L847.5 520L740 487.5L736 502.5Z" fill="#26266F"/>
</g>
<path d="M730.5 508.5C741.27 508.5 750 499.77 750 489C750 478.23 741.27 469.5 730.5 469.5C719.73 469.5 711 478.23 711 489C711 499.77 719.73 508.5 730.5 508.5Z" fill="#F5CB76"/>
<path d="M730.5 503.5C739.06 503.5 746 497.008 746 489C746 480.992 739.06 474.5 730.5 474.5C721.94 474.5 715 480.992 715 489C715 497.008 721.94 503.5 730.5 503.5Z" fill="#FFEECD"/>
<path d="M724.331 539.376C722.213 534.369 719.145 532 715 532V529C720.174 529 724.105 531.842 726.685 537.294C736.72 531.314 745.147 533.496 751.287 543.728C751.713 544.439 751.483 545.36 750.772 545.786C750.062 546.212 749.14 545.982 748.714 545.272C743.217 536.11 736.272 534.581 727.116 540.561L706.373 575.657L718.534 578.028C719.347 578.186 719.877 578.974 719.719 579.787C719.56 580.6 718.773 581.131 717.96 580.972L703.713 578.195C702.696 577.997 702.182 576.852 702.709 575.96L724.331 539.376ZM736 553.5C733.791 553.5 732 551.709 732 549.5C732 547.291 733.791 545.5 736 545.5C738.21 545.5 740 547.291 740 549.5C740 551.709 738.21 553.5 736 553.5ZM715 547.5C712.791 547.5 711 545.709 711 543.5C711 541.291 712.791 539.5 715 539.5C717.21 539.5 719 541.291 719 543.5C719 545.709 717.21 547.5 715 547.5ZM708.641 598.166C704.089 596.924 701.232 593.156 702.259 589.751C703.286 586.346 707.808 584.592 712.36 585.834C716.911 587.076 719.769 590.844 718.742 594.249C717.715 597.654 713.193 599.408 708.641 598.166ZM697.093 611.481C697.379 610.704 698.242 610.306 699.019 610.592C699.796 610.879 700.194 611.741 699.908 612.519L696.408 622.019C696.122 622.796 695.259 623.194 694.482 622.908C693.705 622.621 693.306 621.759 693.593 620.981L697.093 611.481ZM703.093 613.481C703.379 612.704 704.242 612.306 705.019 612.592C705.796 612.879 706.194 613.741 705.908 614.519L702.408 624.019C702.122 624.796 701.259 625.194 700.482 624.908C699.705 624.621 699.306 623.759 699.593 622.981L703.093 613.481ZM709.093 615.481C709.379 614.704 710.242 614.306 711.019 614.592C711.796 614.879 712.194 615.741 711.908 616.519L708.408 626.019C708.122 626.796 707.259 627.194 706.482 626.908C705.705 626.621 705.306 625.759 705.593 624.981L709.093 615.481Z" fill="#353535"/>
<path fill-rule="evenodd" clip-rule="evenodd" d="M875 221V241H770H662V221H682V201H787H894V221H875ZM787 262H894V282H787V262ZM544 626V645H436V626H383V606H488H595V626H544ZM1116 372H1170V392H1065H957V372H904V352H1009H1116V372ZM1037 598.5H1108V618.5H1001V599.5H930V579.5H1037V598.5Z" fill="#8B8BB5"/>
<path d="M249 186H144V204H249V186Z" stroke="white" stroke-width="2"/>
<path d="M319.468 367.028V376.452H310.788V383.52H299.628V376.452H269V367.028L299.628 340.12H310.788V367.028H319.468ZM281.028 367.028H299.628V351.28L281.028 367.028ZM347.802 384.14C330.566 384.14 322.382 376.204 322.382 361.758C322.382 347.374 330.566 339.5 347.802 339.5C364.976 339.5 373.222 347.436 373.222 361.758C373.222 376.142 364.976 384.14 347.802 384.14ZM347.802 374.778C357.598 374.778 362.062 369.88 362.062 361.758C362.062 353.698 357.598 348.862 347.802 348.862C338.006 348.862 333.542 353.636 333.542 361.758C333.542 369.942 338.006 374.778 347.802 374.778ZM427.348 367.028V376.452H418.668V383.52H407.508V376.452H376.88V367.028L407.508 340.12H418.668V367.028H427.348ZM388.908 367.028H407.508V351.28L388.908 367.028Z" fill="white"/>
<path fill-rule="evenodd" clip-rule="evenodd" d="M786 402.5H795V422.5H786V402.5ZM1012 460.5H1021V480.5H1012V460.5Z" fill="#8B8BB5"/>
<path fill-rule="evenodd" clip-rule="evenodd" d="M884 850.5H722V869H707V807C707 802.858 710.358 799.5 714.5 799.5C718.642 799.5 722 802.858 722 807V835.5H884V807C884 802.858 887.358 799.5 891.5 799.5C895.642 799.5 899 802.858 899 807V859L884 861V850.5Z" fill="#FF8484"/>
<path d="M430.126 883.546C423.522 885.527 419 891.605 419 898.5C419 899.328 419.672 900 420.5 900C421.328 900 422 899.328 422 898.5C422 892.93 425.653 888.02 430.988 886.42L445.931 881.937C446.38 881.802 446.74 881.466 446.904 881.027C447.499 879.442 451.655 876.725 459.116 873.368C466.036 870.254 469.911 869.737 474.574 870.333L475.21 870.415C475.459 870.447 475.65 870.47 475.834 870.491C476.658 870.582 477.399 869.989 477.491 869.166C477.582 868.342 476.989 867.601 476.166 867.509C476.002 867.491 475.826 867.469 475.593 867.439C475.521 867.43 475.086 867.374 474.954 867.357C469.757 866.693 465.324 867.284 457.884 870.632C450.349 874.023 445.935 876.772 444.449 879.249L430.126 883.546Z" fill="#353535"/>
<path fill-rule="evenodd" clip-rule="evenodd" d="M791 588.159C811.279 593.425 823.074 589.492 826.385 576.359C828.896 566.4 823.639 558.183 812.107 560.969C809.657 561.561 804.955 566.071 798 574.5L791 588.159Z" fill="#FFCDCD"/>
<path d="M1008.71 814.986L1023.95 812.846C1031.97 811.721 1040.08 814.057 1046.27 819.27L1064.53 834.648C1065.17 835.181 1066.11 835.1 1066.65 834.467C1067.18 833.833 1067.1 832.887 1066.47 832.353L1048.2 816.975C1041.36 811.213 1032.39 808.632 1023.54 809.875L1008.29 812.015C1007.47 812.13 1006.9 812.888 1007.01 813.709C1007.13 814.529 1007.89 815.101 1008.71 814.986Z" fill="#353535"/>
<path d="M769 222H682V220H788V201H790V220H875V222H771V241H769V222ZM1064 373H957.5C956.948 373 956.5 372.552 956.5 372C956.5 371.448 956.948 371 957.5 371H1010V352H1012V371H1116C1116.55 371 1117 371.448 1117 372C1117 372.552 1116.55 373 1116 373H1066V392H1064V373ZM1001 600C1000.45 600 1000 599.552 1000 599C1000 598.448 1000.45 598 1001 598H1037C1037.55 598 1038 598.448 1038 599C1038 599.552 1037.55 600 1037 600H1001ZM488 625V606H490V625H544V627H437V625H488Z" fill="#353535"/>
</svg>
